<svg height="512pt" viewBox="0 -31 512.00002 512" width="512pt" xmlns="http://www.w3.org/2000/svg"><path d="m0 0h512v335.449219h-512zm0 0" fill="#cde2dd"/><path d="m0 0h512v79.449219h-512zm0 0" fill="#2276bb"/><path d="m26.484375 26.484375h17.652344v17.652344h-17.652344zm0 0" fill="#4fb86a"/><path d="m61.792969 26.484375h17.65625v17.652344h-17.65625zm0 0" fill="#4fb86a"/><path d="m97.101562 26.484375h17.65625v17.652344h-17.65625zm0 0" fill="#4fb86a"/><path d="m44.136719 105.929688h423.726562v70.621093h-423.726562zm0 0" fill="#ffbf41"/><g fill="#3a5565"><path d="m52.964844 203.035156h114.757812v17.65625h-114.757812zm0 0"/><path d="m52.964844 247.171875h97.105468v17.65625h-97.105468zm0 0"/><path d="m52.964844 291.308594h17.65625v17.65625h-17.65625zm0 0"/><path d="m88.277344 291.308594h70.621094v17.65625h-70.621094zm0 0"/></g><path d="m450.207031 361.929688-39.1875-39.183594c37.003907-51.628906 25.148438-123.480469-26.480469-160.484375-51.628906-37.003907-123.480468-25.148438-160.484374 26.480469-37.003907 51.628906-25.148438 123.480468 26.480468 160.484374 40.054688 28.710938 93.949219 28.710938 134.003906 0l39.183594 39.1875zm0 0" fill="#d2d7d6"/><path d="m414.898438 388.414062 35.308593-35.3125 54.484375 54.484376c4.679688 4.683593 7.308594 11.035156 7.308594 17.65625 0 13.789062-11.175781 24.964843-24.964844 24.964843-6.621094 0-12.972656-2.628906-17.65625-7.308593zm0 0" fill="#77604f"/><path d="m397.242188 256c0 43.878906-35.570313 79.449219-79.449219 79.449219-43.878907 0-79.449219-35.570313-79.449219-79.449219s35.570312-79.449219 79.449219-79.449219c43.878906 0 79.449219 35.570313 79.449219 79.449219zm0 0" fill="#88d0ef"/></svg>