<svg height="512" viewBox="0 0 512 512" width="512" xmlns="http://www.w3.org/2000/svg"><g id="Flat"><rect fill="#396795" height="320" rx="32" width="464" x="24" y="120"/><rect fill="#8acce7" height="416" rx="8" transform="matrix(0 1 -1 0 536 24)" width="272" x="120" y="72"/><path d="m24 440h464a0 0 0 0 1 0 0 48 48 0 0 1 -48 48h-368a48 48 0 0 1 -48-48 0 0 0 0 1 0 0z" fill="#26507a"/><path d="m208 440h96a0 0 0 0 1 0 0 24 24 0 0 1 -24 24h-48a24 24 0 0 1 -24-24 0 0 0 0 1 0 0z" fill="#2f4054"/><path d="m136 24h240a32 32 0 0 1 32 32v360a0 0 0 0 1 0 0h-304a0 0 0 0 1 0 0v-360a32 32 0 0 1 32-32z" fill="#eedc9a"/><path d="m176 56h160v32h-160z" fill="#4ba477"/><g fill="#eebe33"><path d="m144 112h32v16h-32z"/><path d="m192 112h96v16h-96z"/><path d="m304 112h48v16h-48z"/><path d="m368 112h16v16h-16z"/><path d="m352 144h32v16h-32z"/><path d="m240 144h96v16h-96z"/><path d="m176 144h48v16h-48z"/><path d="m128 144h32v16h-32z"/><path d="m336 184h48v16h-48z"/><path d="m272 184h48v16h-48z"/><path d="m224 184h32v16h-32z"/><path d="m208 216h64v16h-64z"/><path d="m288 216h48v16h-48z"/><path d="m352 216h32v16h-32z"/><path d="m336 264h48v16h-48z"/><path d="m288 264h32v16h-32z"/><path d="m224 264h48v16h-48z"/><path d="m208 296h32v16h-32z"/><path d="m256 296h80v16h-80z"/><path d="m224 344h48v16h-48z"/><path d="m288 344h48v16h-48z"/><path d="m352 344h32v16h-32z"/><path d="m256 376h48v16h-48z"/><path d="m208 376h32v16h-32z"/></g><path d="m184 240h-48a8.00008 8.00008 0 0 1 -8-8v-48a8.00008 8.00008 0 0 1 8-8h48a8.00008 8.00008 0 0 1 8 8v48a8.00008 8.00008 0 0 1 -8 8zm-40-16h32v-32h-32z" fill="#4ba477"/><path d="m184 320h-48a8.00008 8.00008 0 0 1 -8-8v-48a8.00008 8.00008 0 0 1 8-8h48a8.00008 8.00008 0 0 1 8 8v48a8.00008 8.00008 0 0 1 -8 8zm-40-16h32v-32h-32z" fill="#4ba477"/><path d="m184 400h-48a8.00008 8.00008 0 0 1 -8-8v-48a8.00008 8.00008 0 0 1 8-8h48a8.00008 8.00008 0 0 1 8 8v48a8.00008 8.00008 0 0 1 -8 8zm-40-16h32v-32h-32z" fill="#4ba477"/><path d="m151.716 180h56.569v16h-56.569z" fill="#e44b4d" transform="matrix(.707 -.707 .707 .707 -80.215 182.332)"/></g></svg>